<svg width="61" height="16" viewBox="0 0 61 16" fill="none" xmlns="http://www.w3.org/2000/svg">
<g clip-path="url(#clip0_476_2)">
<path fill-rule="evenodd" clip-rule="evenodd" d="M0 8C0 3.58172 3.58172 0 8 0C9.45622 0 10.8236 0.389741 12.0012 1.07109L12.6301 1.43497L9.25968 7.27272L12.3642 7.27273V8.72727L9.25968 8.72727L10.8117 11.4154L9.55199 12.1427L8 9.45454L6.44802 12.1427L5.18835 11.4154L6.74033 8.72727L3.63636 8.72727L3.63636 7.27273L6.74033 7.27272L5.18805 4.58409L6.44772 3.85682L8 6.54545L10.6236 2.00133C9.82094 1.64974 8.93394 1.45455 8 1.45455C4.38505 1.45455 1.45455 4.38505 1.45455 8C1.45455 11.615 4.38505 14.5455 8 14.5455C11.615 14.5455 14.5455 11.615 14.5455 8C14.5455 6.73285 14.1861 5.55185 13.5641 4.5508C13.471 4.40103 13.3721 4.25527 13.2675 4.11384L14.4372 3.24927C14.5649 3.42201 14.6858 3.60009 14.7996 3.78313C15.5606 5.00795 16 6.45377 16 8C16 12.4183 12.4183 16 8 16C3.58172 16 0 12.4183 0 8Z" fill="black"/>
<path d="M24.3054 12.121C23.5427 12.121 22.8754 11.956 22.3034 11.626C21.7314 11.2887 21.2877 10.8303 20.9724 10.251C20.6644 9.66433 20.5104 9.00067 20.5104 8.26C20.5104 7.70267 20.602 7.18933 20.7854 6.72C20.976 6.24333 21.24 5.83267 21.5774 5.488C21.922 5.14333 22.3254 4.87567 22.7874 4.685C23.2494 4.49433 23.7554 4.399 24.3054 4.399C25.1634 4.399 25.8674 4.57867 26.4174 4.938C26.9674 5.29733 27.4074 5.79233 27.7374 6.423L26.5274 6.83C26.2194 6.38267 25.882 6.071 25.5154 5.895C25.156 5.719 24.7527 5.631 24.3054 5.631C23.8287 5.631 23.4034 5.74467 23.0294 5.972C22.6554 6.192 22.3584 6.5 22.1384 6.896C21.9184 7.292 21.8084 7.74667 21.8084 8.26C21.8084 8.77333 21.9184 9.228 22.1384 9.624C22.3584 10.02 22.6554 10.3317 23.0294 10.559C23.4034 10.779 23.8287 10.889 24.3054 10.889C24.7527 10.889 25.156 10.801 25.5154 10.625C25.882 10.449 26.2194 10.1373 26.5274 9.69L27.7374 10.097C27.4074 10.7277 26.9674 11.2227 26.4174 11.582C25.8674 11.9413 25.1634 12.121 24.3054 12.121ZM29.5862 6.632L29.9052 8.095V12H28.6292V6.632H29.5862ZM29.6742 8.7L29.4102 8.579V7.622L29.5092 7.49C29.5826 7.36533 29.6999 7.226 29.8612 7.072C30.0226 6.918 30.2096 6.786 30.4222 6.676C30.6422 6.566 30.8659 6.511 31.0932 6.511C31.2032 6.511 31.3059 6.51833 31.4012 6.533C31.5039 6.54767 31.5809 6.57333 31.6322 6.61V7.765H31.2802C30.7962 7.765 30.4332 7.842 30.1912 7.996C29.9492 8.14267 29.7769 8.37733 29.6742 8.7ZM33.8052 12H32.5292V6.632H33.8052V12ZM32.3642 4.96C32.3642 4.72533 32.4338 4.53467 32.5732 4.388C32.7198 4.234 32.9178 4.157 33.1672 4.157C33.4018 4.157 33.5925 4.234 33.7392 4.388C33.8858 4.53467 33.9592 4.72533 33.9592 4.96C33.9592 5.19467 33.8858 5.38533 33.7392 5.532C33.5925 5.67867 33.4018 5.752 33.1672 5.752C32.9178 5.752 32.7198 5.67867 32.5732 5.532C32.4338 5.38533 32.3642 5.19467 32.3642 4.96ZM35.1497 12V6.632H36.1067L36.3707 7.611L35.9967 7.622C36.1947 7.39467 36.4037 7.20033 36.6237 7.039C36.8511 6.87033 37.0931 6.742 37.3497 6.654C37.6137 6.55867 37.8851 6.511 38.1637 6.511C38.5377 6.511 38.8347 6.57333 39.0547 6.698C39.2747 6.82267 39.4361 6.995 39.5387 7.215C39.6487 7.42767 39.7184 7.66967 39.7477 7.941C39.7844 8.205 39.8027 8.48 39.8027 8.766V12H38.5267V8.656C38.5267 8.29667 38.4497 8.05833 38.2957 7.941C38.1491 7.81633 37.9694 7.754 37.7567 7.754C37.4634 7.754 37.1774 7.84567 36.8987 8.029C36.6201 8.21233 36.4037 8.43967 36.2497 8.711L36.1507 8.018H36.4257V12H35.1497ZM41.9037 12V8.656C41.9037 8.29667 41.8267 8.05833 41.6727 7.941C41.5261 7.81633 41.3501 7.754 41.1447 7.754C40.8441 7.754 40.5544 7.84567 40.2757 8.029C39.9971 8.21233 39.7807 8.43967 39.6267 8.711L39.3847 7.622C39.5754 7.39467 39.7807 7.20033 40.0007 7.039C40.2281 6.87033 40.4701 6.742 40.7267 6.654C40.9907 6.55867 41.2621 6.511 41.5407 6.511C41.9147 6.511 42.2117 6.57333 42.4317 6.698C42.6517 6.82267 42.8131 6.995 42.9157 7.215C43.0257 7.42767 43.0954 7.66967 43.1247 7.941C43.1614 8.205 43.1797 8.48 43.1797 8.766V12H41.9037ZM46.2028 12.132C45.8068 12.132 45.4254 12.044 45.0588 11.868C44.6921 11.692 44.3768 11.395 44.1128 10.977L44.9818 10.317C45.2018 10.581 45.4108 10.7717 45.6088 10.889C45.8068 11.0063 46.0488 11.065 46.3348 11.065C46.5401 11.065 46.7014 11.0137 46.8188 10.911C46.9361 10.8083 46.9948 10.68 46.9948 10.526C46.9948 10.4233 46.9654 10.3317 46.9068 10.251C46.8481 10.1703 46.7381 10.097 46.5768 10.031C46.4228 9.95767 46.1991 9.88433 45.9058 9.811C45.3631 9.67167 44.9488 9.481 44.6628 9.239C44.3841 8.997 44.2448 8.63767 44.2448 8.161C44.2448 7.86033 44.3218 7.58533 44.4758 7.336C44.6298 7.07933 44.8534 6.87767 45.1468 6.731C45.4401 6.577 45.7848 6.5 46.1808 6.5C46.6574 6.5 47.0644 6.59533 47.4018 6.786C47.7391 6.97667 48.0068 7.204 48.2048 7.468L47.3138 8.172C47.1891 8.03267 47.0204 7.90433 46.8078 7.787C46.6024 7.66233 46.3531 7.6 46.0598 7.6C45.8838 7.6 45.7261 7.644 45.5868 7.732C45.4474 7.82 45.3778 7.94467 45.3778 8.106C45.3778 8.26 45.4474 8.38833 45.5868 8.491C45.7261 8.59367 45.9901 8.689 46.3788 8.777C47.0314 8.931 47.4971 9.13633 47.7758 9.393C48.0544 9.64967 48.1938 9.987 48.1938 10.405C48.1938 10.757 48.1021 11.065 47.9188 11.329C47.7354 11.5857 47.4934 11.7837 47.1928 11.923C46.8921 12.0623 46.5621 12.132 46.2028 12.132ZM51.6428 12.121C51.0928 12.121 50.6088 12.0037 50.1908 11.769C49.7728 11.5343 49.4465 11.208 49.2118 10.79C48.9845 10.3647 48.8708 9.877 48.8708 9.327C48.8708 8.76233 48.9845 8.271 49.2118 7.853C49.4465 7.42767 49.7728 7.09767 50.1908 6.863C50.6088 6.62833 51.0928 6.511 51.6428 6.511C52.1928 6.511 52.6768 6.62833 53.0948 6.863C53.5128 7.09767 53.8355 7.42767 54.0628 7.853C54.2975 8.271 54.4148 8.76233 54.4148 9.327C54.4148 9.877 54.2975 10.3647 54.0628 10.79C53.8355 11.208 53.5128 11.5343 53.0948 11.769C52.6768 12.0037 52.1928 12.121 51.6428 12.121ZM51.6428 10.889C52.0828 10.889 52.4385 10.746 52.7098 10.46C52.9811 10.1667 53.1168 9.78533 53.1168 9.316C53.1168 8.84667 52.9811 8.469 52.7098 8.183C52.4385 7.88967 52.0828 7.743 51.6428 7.743C51.2028 7.743 50.8471 7.886 50.5758 8.172C50.3045 8.458 50.1688 8.83933 50.1688 9.316C50.1688 9.78533 50.3045 10.1667 50.5758 10.46C50.8471 10.746 51.2028 10.889 51.6428 10.889ZM58.5233 6.511C58.9046 6.511 59.2053 6.57333 59.4253 6.698C59.6453 6.82267 59.8103 6.995 59.9203 7.215C60.0303 7.42767 60.1 7.66967 60.1293 7.941C60.166 8.205 60.1843 8.48 60.1843 8.766V12H58.9083V8.656C58.9083 8.29667 58.8313 8.05833 58.6773 7.941C58.5306 7.81633 58.3473 7.754 58.1273 7.754C57.922 7.754 57.7093 7.798 57.4893 7.886C57.2766 7.96667 57.0823 8.08033 56.9063 8.227C56.7303 8.36633 56.5873 8.52767 56.4773 8.711L56.3783 8.018H56.6533V12H55.3773V6.632H56.3343L56.5983 7.611L56.2243 7.622C56.4296 7.39467 56.6533 7.20033 56.8953 7.039C57.1373 6.87033 57.394 6.742 57.6653 6.654C57.944 6.55867 58.23 6.511 58.5233 6.511Z" fill="black"/>
</g>
<defs>
<clipPath id="clip0_476_2">
<rect width="61" height="16" fill="white"/>
</clipPath>
</defs>
</svg>
