<svg width="384" height="312" viewBox="0 0 384 312" fill="none" xmlns="http://www.w3.org/2000/svg">
<g clip-path="url(#clip0_390_317)">
<path d="M2.32278 84.2102L24.6188 168.284C32.6561 198.591 60.2697 219.714 91.8511 219.714H302.409C331.644 219.714 357.754 201.566 367.745 174.303L379.866 141.227C390.314 112.715 380.672 80.8 354.171 65.6707C327.276 50.3159 289.701 31.6941 246.822 18.5024C202.424 4.84356 126.274 0.991157 66.7153 0.290486C22.3139 -0.231867 -8.97786 41.5978 2.32278 84.2102Z" fill="black"/>
</g>
<path d="M70.9658 311.792C67.2698 311.792 63.7898 311.12 60.5258 309.776C57.3098 308.432 54.5018 306.584 52.1018 304.232C49.7018 301.832 47.8058 299.048 46.4138 295.88C45.0698 292.664 44.3978 289.208 44.3978 285.512C44.3978 281.816 45.0938 278.384 46.4858 275.216C47.8778 272.048 49.7978 269.288 52.2458 266.936C54.7418 264.536 57.6458 262.688 60.9578 261.392C64.2698 260.048 67.8218 259.376 71.6138 259.376C75.9818 259.376 79.9418 260.168 83.4938 261.752C87.0938 263.336 90.0698 265.52 92.4218 268.304L84.7178 276.008C83.0858 273.896 81.1658 272.312 78.9578 271.256C76.7498 270.2 74.2538 269.672 71.4698 269.672C68.4938 269.672 65.8298 270.344 63.4778 271.688C61.1258 272.984 59.2778 274.832 57.9338 277.232C56.6378 279.584 55.9898 282.344 55.9898 285.512C55.9898 288.68 56.6378 291.464 57.9338 293.864C59.2298 296.264 61.0058 298.136 63.2617 299.48C65.5178 300.824 68.1098 301.496 71.0378 301.496C74.0138 301.496 76.5338 300.944 78.5978 299.84C80.7098 298.688 82.3177 297.056 83.4218 294.944C84.5738 292.784 85.1498 290.168 85.1498 287.096L92.6378 292.136L69.9578 291.776V282.2H96.6698V283.856C96.6698 289.952 95.5658 295.088 93.3578 299.264C91.1978 303.392 88.1738 306.512 84.2858 308.624C80.4458 310.736 76.0058 311.792 70.9658 311.792ZM112.161 290.048V281.696H122.889C125.145 281.696 126.873 281.12 128.073 279.968C129.321 278.816 129.945 277.256 129.945 275.288C129.945 273.464 129.345 271.952 128.145 270.752C126.945 269.552 125.217 268.952 122.961 268.952H112.161V260.168H124.257C127.617 260.168 130.569 260.816 133.113 262.112C135.657 263.36 137.649 265.112 139.089 267.368C140.529 269.624 141.249 272.216 141.249 275.144C141.249 278.12 140.529 280.736 139.089 282.992C137.649 285.2 135.633 286.928 133.041 288.176C130.449 289.424 127.401 290.048 123.897 290.048H112.161ZM103.521 311V260.168H114.825V311H103.521ZM131.169 311L115.329 289.112L125.697 286.304L144.561 311H131.169ZM173.488 311.864C169.648 311.864 166.096 311.192 162.832 309.848C159.616 308.504 156.784 306.632 154.336 304.232C151.888 301.832 149.992 299.048 148.648 295.88C147.304 292.664 146.632 289.208 146.632 285.512C146.632 281.768 147.304 278.312 148.648 275.144C149.992 271.976 151.864 269.216 154.264 266.864C156.664 264.464 159.472 262.616 162.688 261.32C165.952 259.976 169.504 259.304 173.344 259.304C177.136 259.304 180.64 259.976 183.856 261.32C187.12 262.616 189.952 264.464 192.352 266.864C194.8 269.216 196.696 272 198.04 275.216C199.384 278.384 200.056 281.84 200.056 285.584C200.056 289.28 199.384 292.736 198.04 295.952C196.696 299.12 194.824 301.904 192.424 304.304C190.024 306.656 187.192 308.504 183.928 309.848C180.712 311.192 177.232 311.864 173.488 311.864ZM173.344 301.568C176.368 301.568 179.008 300.896 181.264 299.552C183.568 298.208 185.344 296.336 186.592 293.936C187.84 291.488 188.464 288.68 188.464 285.512C188.464 283.112 188.104 280.952 187.384 279.032C186.664 277.064 185.632 275.384 184.288 273.992C182.944 272.552 181.336 271.472 179.464 270.752C177.64 269.984 175.6 269.6 173.344 269.6C170.32 269.6 167.656 270.272 165.352 271.616C163.096 272.912 161.344 274.76 160.096 277.16C158.848 279.512 158.224 282.296 158.224 285.512C158.224 287.912 158.584 290.096 159.304 292.064C160.024 294.032 161.032 295.736 162.328 297.176C163.672 298.568 165.28 299.648 167.152 300.416C169.024 301.184 171.088 301.568 173.344 301.568ZM227.68 311.792C223.504 311.792 219.808 310.904 216.592 309.128C213.424 307.352 210.928 304.904 209.104 301.784C207.328 298.616 206.44 295.016 206.44 290.984V260.168H217.816V291.632C217.816 293.648 218.248 295.4 219.112 296.888C219.976 298.376 221.152 299.528 222.64 300.344C224.176 301.112 225.856 301.496 227.68 301.496C229.6 301.496 231.28 301.112 232.72 300.344C234.16 299.528 235.288 298.4 236.104 296.96C236.968 295.472 237.4 293.72 237.4 291.704V260.168H248.776V291.056C248.776 295.088 247.888 298.664 246.112 301.784C244.336 304.904 241.864 307.352 238.696 309.128C235.528 310.904 231.856 311.792 227.68 311.792ZM266.427 292.496V283.712H277.371C278.763 283.712 280.035 283.424 281.187 282.848C282.339 282.272 283.251 281.432 283.923 280.328C284.595 279.224 284.931 277.88 284.931 276.296C284.931 274.76 284.595 273.44 283.923 272.336C283.251 271.232 282.339 270.392 281.187 269.816C280.035 269.24 278.763 268.952 277.371 268.952H266.427V260.168H279.027C282.243 260.168 285.147 260.816 287.739 262.112C290.331 263.408 292.371 265.28 293.859 267.728C295.395 270.128 296.163 272.984 296.163 276.296C296.163 279.608 295.395 282.488 293.859 284.936C292.371 287.336 290.331 289.208 287.739 290.552C285.147 291.848 282.243 292.496 279.027 292.496H266.427ZM257.787 311V260.168H269.091V311H257.787ZM302.505 311V260.168H313.809V311H302.505ZM311.145 311V301.208H339.009V311H311.145ZM311.145 289.76V280.328H336.489V289.76H311.145ZM311.145 269.888V260.168H338.649V269.888H311.145Z" fill="black"/>
<defs>
<clipPath id="clip0_390_317">
<rect width="384" height="220" fill="white"/>
</clipPath>
</defs>
</svg>
