<svg width="721" height="224" viewBox="0 0 721 224" fill="none" xmlns="http://www.w3.org/2000/svg">
<path d="M19 104.159L187.537 59.0001L204.101 120.819L35.5644 165.979L19 104.159Z" fill="white"/>
<path d="M24.3095 6H198.792V70H24.3095V6Z" fill="white"/>
<path d="M35.5644 112L204.101 157.159L187.537 218.979L19 173.819L35.5644 112Z" fill="white"/>
<path d="M286.656 59.984C287.211 61.776 288.171 63.1413 289.536 64.08C290.944 65.0187 292.736 65.488 294.912 65.488C297.216 65.488 299.029 64.9547 300.352 63.888C301.675 62.7787 302.336 61.2853 302.336 59.408C302.336 58.0427 301.867 56.912 300.928 56.016C300.032 55.12 298.773 54.544 297.152 54.288L290.752 53.328C286.229 52.6027 282.752 50.9173 280.32 48.272C277.888 45.584 276.672 42.0853 276.672 37.776C276.672 34.448 277.419 31.5893 278.912 29.2C280.405 26.768 282.517 24.8907 285.248 23.568C288.021 22.2453 291.285 21.584 295.04 21.584C298.795 21.584 302.037 22.2453 304.768 23.568C307.541 24.848 309.696 26.7253 311.232 29.2C312.768 31.632 313.643 34.5973 313.856 38.096H303.744C303.189 35.8773 302.165 34.192 300.672 33.04C299.221 31.888 297.344 31.312 295.04 31.312C292.608 31.312 290.688 31.8667 289.28 32.976C287.915 34.0427 287.232 35.536 287.232 37.456C287.232 38.8213 287.68 39.9733 288.576 40.912C289.515 41.808 290.816 42.384 292.48 42.64L298.816 43.6C303.381 44.3253 306.859 46.032 309.248 48.72C311.68 51.3653 312.896 54.8213 312.896 59.088C312.896 62.3733 312.171 65.232 310.72 67.664C309.269 70.096 307.179 71.9733 304.448 73.296C301.76 74.576 298.56 75.216 294.848 75.216C291.136 75.216 287.915 74.6187 285.184 73.424C282.496 72.2293 280.363 70.5013 278.784 68.24C277.248 65.936 276.373 63.184 276.16 59.984H286.656ZM339.213 75.216C335.373 75.216 332.045 74.3627 329.229 72.656C326.413 70.9493 324.237 68.5387 322.701 65.424C321.165 62.3093 320.397 58.6187 320.397 54.352C320.397 50.0427 321.165 46.3307 322.701 43.216C324.237 40.1013 326.413 37.6907 329.229 35.984C332.045 34.2773 335.373 33.424 339.213 33.424C343.053 33.424 346.381 34.2773 349.197 35.984C352.013 37.6907 354.189 40.1013 355.725 43.216C357.261 46.3307 358.029 50.0427 358.029 54.352C358.029 58.6187 357.261 62.3093 355.725 65.424C354.189 68.5387 352.013 70.9493 349.197 72.656C346.423 74.3627 343.095 75.216 339.213 75.216ZM339.213 66C342.029 66 344.205 64.976 345.741 62.928C347.277 60.88 348.045 58.0213 348.045 54.352C348.045 50.64 347.277 47.76 345.741 45.712C344.205 43.664 342.029 42.64 339.213 42.64C336.439 42.64 334.263 43.664 332.685 45.712C331.149 47.76 330.381 50.64 330.381 54.352C330.381 58.0213 331.149 60.88 332.685 62.928C334.263 64.976 336.439 66 339.213 66ZM385.113 75.216C381.316 75.216 377.988 74.384 375.129 72.72C372.313 71.0133 370.137 68.624 368.601 65.552C367.108 62.4373 366.361 58.768 366.361 54.544C366.361 50.192 367.129 46.4587 368.665 43.344C370.244 40.1867 372.462 37.7547 375.321 36.048C378.18 34.2987 381.55 33.424 385.433 33.424C388.932 33.424 391.961 34.1493 394.521 35.6C397.124 37.008 399.172 39.0133 400.665 41.616C402.158 44.2187 402.969 47.2907 403.097 50.832H393.817C393.262 48.2293 392.26 46.224 390.809 44.816C389.358 43.3653 387.545 42.64 385.369 42.64C382.553 42.64 380.334 43.6853 378.713 45.776C377.134 47.824 376.345 50.7467 376.345 54.544C376.345 58.1707 377.113 60.9867 378.649 62.992C380.228 64.9973 382.382 66 385.113 66C387.033 66 388.654 65.4027 389.977 64.208C391.342 63.0133 392.345 61.328 392.985 59.152H402.329C402.073 62.4373 401.177 65.296 399.641 67.728C398.148 70.1173 396.142 71.9733 393.625 73.296C391.15 74.576 388.313 75.216 385.113 75.216ZM414.374 34.64H436.262V64.784H447.846V74H414.374V64.784H425.894V43.856H414.374V34.64ZM430.566 29.968C428.475 29.968 426.854 29.4347 425.702 28.368C424.55 27.3013 423.974 25.7867 423.974 23.824C423.974 21.8613 424.55 20.3467 425.702 19.28C426.854 18.2133 428.475 17.68 430.566 17.68C432.699 17.68 434.32 18.2133 435.43 19.28C436.582 20.3467 437.158 21.8613 437.158 23.824C437.158 25.7867 436.582 27.3013 435.43 28.368C434.32 29.4347 432.699 29.968 430.566 29.968ZM463.986 50.192H485.81L482.418 54.032C482.418 50.1493 481.735 47.2267 480.37 45.264C479.047 43.3013 477.021 42.32 474.29 42.32C471.517 42.32 469.405 43.3653 467.954 45.456C466.546 47.504 465.842 50.384 465.842 54.096C465.842 58.1067 466.546 61.1573 467.954 63.248C469.362 65.296 471.559 66.32 474.546 66.32C476.253 66.32 477.746 65.936 479.026 65.168C480.349 64.3573 481.479 63.2267 482.418 61.776H492.402C491.549 64.6347 490.269 67.0667 488.562 69.072C486.855 71.0773 484.786 72.6133 482.354 73.68C479.965 74.704 477.277 75.216 474.29 75.216C470.45 75.216 467.143 74.384 464.37 72.72C461.639 71.056 459.527 68.6453 458.034 65.488C456.583 62.3307 455.858 58.5333 455.858 54.096C455.858 49.872 456.605 46.224 458.098 43.152C459.634 40.0373 461.789 37.648 464.562 35.984C467.335 34.2773 470.578 33.424 474.29 33.424C477.917 33.424 481.01 34.2347 483.57 35.856C486.13 37.4773 488.093 39.824 489.458 42.896C490.866 45.9253 491.57 49.6373 491.57 54.032C491.57 54.7147 491.527 55.3547 491.442 55.952C491.399 56.5493 491.357 57.104 491.314 57.616H463.986V50.192ZM468.018 29.904L475.25 18.896H486.194L476.594 29.904H468.018ZM518.207 24.464V34.64H535.423V43.856H518.207V60.304C518.207 62.1813 518.548 63.6107 519.231 64.592C519.913 65.5307 520.916 66 522.239 66C523.604 66 524.713 65.424 525.567 64.272C526.42 63.12 527.103 61.2427 527.615 58.64H536.767C536.511 64.016 535.103 68.1333 532.543 70.992C530.025 73.808 526.505 75.216 521.983 75.216C517.417 75.216 513.919 73.936 511.487 71.376C509.055 68.816 507.839 65.1467 507.839 60.368V43.856H500.479V34.64H507.839V24.464H518.207ZM553.611 50.192H575.435L572.043 54.032C572.043 50.1493 571.36 47.2267 569.995 45.264C568.672 43.3013 566.646 42.32 563.915 42.32C561.142 42.32 559.03 43.3653 557.579 45.456C556.171 47.504 555.467 50.384 555.467 54.096C555.467 58.1067 556.171 61.1573 557.579 63.248C558.987 65.296 561.184 66.32 564.171 66.32C565.878 66.32 567.371 65.936 568.651 65.168C569.974 64.3573 571.104 63.2267 572.043 61.776H582.027C581.174 64.6347 579.894 67.0667 578.187 69.072C576.48 71.0773 574.411 72.6133 571.979 73.68C569.59 74.704 566.902 75.216 563.915 75.216C560.075 75.216 556.768 74.384 553.995 72.72C551.264 71.056 549.152 68.6453 547.659 65.488C546.208 62.3307 545.483 58.5333 545.483 54.096C545.483 49.872 546.23 46.224 547.723 43.152C549.259 40.0373 551.414 37.648 554.187 35.984C556.96 34.2773 560.203 33.424 563.915 33.424C567.542 33.424 570.635 34.2347 573.195 35.856C575.755 37.4773 577.718 39.824 579.083 42.896C580.491 45.9253 581.195 49.6373 581.195 54.032C581.195 54.7147 581.152 55.3547 581.067 55.952C581.024 56.5493 580.982 57.104 580.939 57.616H553.611V50.192ZM557.643 29.904L564.875 18.896H575.819L566.219 29.904H557.643ZM290.112 139.024C286.955 139.024 284.203 138.192 281.856 136.528C279.509 134.821 277.696 132.432 276.416 129.36C275.136 126.245 274.496 122.576 274.496 118.352C274.496 114.085 275.136 110.416 276.416 107.344C277.696 104.229 279.509 101.84 281.856 100.176C284.203 98.4693 286.955 97.616 290.112 97.616C292.032 97.616 293.781 98.0427 295.36 98.896C296.939 99.7067 298.112 100.859 298.88 102.352H301.248V83.728H311.616V138H301.248V134.288H298.88C298.112 135.739 296.939 136.891 295.36 137.744C293.781 138.597 292.032 139.024 290.112 139.024ZM293.184 129.808C295.957 129.808 298.112 128.805 299.648 126.8C301.184 124.752 301.952 121.915 301.952 118.288C301.952 114.661 301.184 111.845 299.648 109.84C298.112 107.835 295.957 106.832 293.184 106.832C290.453 106.832 288.32 107.856 286.784 109.904C285.248 111.909 284.48 114.725 284.48 118.352C284.48 121.979 285.248 124.795 286.784 126.8C288.32 128.805 290.453 129.808 293.184 129.808ZM329.549 114.192H351.373L347.981 118.032C347.981 114.149 347.298 111.227 345.933 109.264C344.61 107.301 342.583 106.32 339.853 106.32C337.079 106.32 334.967 107.365 333.517 109.456C332.109 111.504 331.405 114.384 331.405 118.096C331.405 122.107 332.109 125.157 333.517 127.248C334.925 129.296 337.122 130.32 340.109 130.32C341.815 130.32 343.309 129.936 344.589 129.168C345.911 128.357 347.042 127.227 347.981 125.776H357.965C357.111 128.635 355.831 131.067 354.125 133.072C352.418 135.077 350.349 136.613 347.917 137.68C345.527 138.704 342.839 139.216 339.853 139.216C336.013 139.216 332.706 138.384 329.933 136.72C327.202 135.056 325.09 132.645 323.597 129.488C322.146 126.331 321.421 122.533 321.421 118.096C321.421 113.872 322.167 110.224 323.661 107.152C325.197 104.037 327.351 101.648 330.125 99.984C332.898 98.2773 336.141 97.424 339.853 97.424C343.479 97.424 346.573 98.2347 349.132 99.856C351.692 101.477 353.655 103.824 355.021 106.896C356.429 109.925 357.133 113.637 357.133 118.032C357.133 118.715 357.09 119.355 357.005 119.952C356.962 120.549 356.919 121.104 356.877 121.616H329.549V114.192ZM377.177 125.776C377.774 127.227 378.692 128.357 379.929 129.168C381.209 129.936 382.83 130.32 384.793 130.32C386.884 130.32 388.484 130.021 389.593 129.424C390.702 128.784 391.257 127.867 391.257 126.672C391.257 125.691 390.852 124.944 390.041 124.432C389.273 123.877 388.057 123.493 386.393 123.28L380.697 122.64C376.26 122.128 372.953 120.891 370.777 118.928C368.644 116.923 367.577 114.128 367.577 110.544C367.577 106.491 369.049 103.291 371.993 100.944C374.98 98.5973 379.097 97.424 384.345 97.424C389.892 97.424 394.18 98.64 397.209 101.072C400.238 103.461 401.881 107.003 402.137 111.696H392.473C392.004 109.947 391.086 108.624 389.721 107.728C388.356 106.789 386.542 106.32 384.281 106.32C382.062 106.32 380.377 106.64 379.225 107.28C378.073 107.92 377.497 108.859 377.497 110.096C377.497 111.035 377.881 111.781 378.649 112.336C379.417 112.848 380.633 113.211 382.297 113.424L387.993 114.064C392.473 114.576 395.78 115.813 397.913 117.776C400.089 119.739 401.177 122.512 401.177 126.096C401.177 128.827 400.516 131.173 399.193 133.136C397.913 135.099 396.036 136.613 393.561 137.68C391.129 138.704 388.185 139.216 384.729 139.216C379.438 139.216 375.321 138.085 372.377 135.824C369.433 133.52 367.79 130.171 367.449 125.776H377.177ZM471.154 139.088C465.778 139.088 461.618 136.805 458.674 132.24C455.773 127.675 454.322 121.061 454.322 112.4C454.322 103.568 456.029 96.8907 459.442 92.368C462.898 87.8453 467.954 85.584 474.61 85.584C478.322 85.584 481.522 86.3307 484.21 87.824C486.898 89.2747 489.01 91.3867 490.546 94.16C492.082 96.9333 492.957 100.283 493.17 104.208H483.122C482.525 101.307 481.522 99.1307 480.114 97.68C478.706 96.1867 476.871 95.44 474.61 95.44C471.453 95.44 469.085 96.848 467.506 99.664C465.927 102.437 465.138 106.683 465.138 112.4C465.138 118.501 465.906 122.981 467.442 125.84C469.021 128.656 471.495 130.064 474.866 130.064C476.445 130.064 477.81 129.659 478.962 128.848C480.157 127.995 481.095 126.864 481.778 125.456C482.461 124.048 482.802 122.427 482.802 120.592H473.458V111.056H492.21V138H482.802V133.776H480.434C479.794 135.44 478.663 136.741 477.042 137.68C475.421 138.619 473.458 139.088 471.154 139.088ZM501.055 98.64H518.015V102.224H520.383C521.108 100.731 522.175 99.5787 523.583 98.768C525.033 97.9147 526.655 97.488 528.447 97.488C531.561 97.488 533.908 98.6827 535.487 101.072C537.108 103.419 537.919 106.896 537.919 111.504V117.84H527.359V112.848C527.359 109.264 526.036 107.472 523.391 107.472C521.684 107.472 520.425 108.24 519.615 109.776C518.804 111.312 518.399 113.659 518.399 116.816V128.784H529.535V138H501.823V128.784H508.415V107.856H501.055V98.64ZM570.379 113.104V120.848L560.971 122.256C559.606 122.469 558.539 122.96 557.771 123.728C557.046 124.453 556.683 125.371 556.683 126.48C556.683 127.675 557.067 128.635 557.835 129.36C558.646 130.043 559.798 130.384 561.291 130.384C562.87 130.384 564.278 130.043 565.515 129.36C566.795 128.677 567.798 127.781 568.523 126.672C569.291 125.52 569.675 124.261 569.675 122.896V113.04C569.675 110.864 569.099 109.221 567.947 108.112C566.838 106.96 565.131 106.384 562.827 106.384C561.291 106.384 559.926 106.64 558.731 107.152C557.536 107.664 556.576 108.411 555.851 109.392C555.126 110.331 554.635 111.483 554.379 112.848H544.395C544.694 109.648 545.632 106.896 547.211 104.592C548.79 102.288 550.902 100.517 553.547 99.28C556.235 98.0427 559.35 97.424 562.891 97.424C568.352 97.424 572.534 98.704 575.435 101.264C578.336 103.781 579.787 107.451 579.787 112.272V138H569.675V134.096H567.307C566.539 135.675 565.43 136.891 563.979 137.744C562.528 138.555 560.651 138.96 558.347 138.96C555.958 138.96 553.846 138.491 552.011 137.552C550.176 136.571 548.747 135.227 547.723 133.52C546.699 131.771 546.187 129.765 546.187 127.504C546.187 124.048 547.254 121.253 549.387 119.12C551.563 116.987 554.678 115.6 558.731 114.96L570.379 113.104ZM591.384 138V98.64H601.752V102.224H604.12C604.973 100.731 606.168 99.5573 607.704 98.704C609.24 97.8507 611.01 97.424 613.016 97.424C615.618 97.424 617.837 98.0427 619.672 99.28C621.506 100.517 622.914 102.309 623.896 104.656C624.877 106.96 625.368 109.755 625.368 113.04V138H615V115.6C615 112.784 614.445 110.672 613.336 109.264C612.226 107.813 610.584 107.088 608.408 107.088C606.189 107.088 604.525 107.813 603.416 109.264C602.306 110.672 601.752 112.784 601.752 115.6V138H591.384ZM648.612 139.024C645.455 139.024 642.703 138.192 640.356 136.528C638.009 134.821 636.196 132.432 634.916 129.36C633.636 126.245 632.996 122.576 632.996 118.352C632.996 114.085 633.636 110.416 634.916 107.344C636.196 104.229 638.009 101.84 640.356 100.176C642.703 98.4693 645.455 97.616 648.612 97.616C650.532 97.616 652.281 98.0427 653.86 98.896C655.439 99.7067 656.612 100.859 657.38 102.352H659.748V83.728H670.116V138H659.748V134.288H657.38C656.612 135.739 655.439 136.891 653.86 137.744C652.281 138.597 650.532 139.024 648.612 139.024ZM651.684 129.808C654.457 129.808 656.612 128.805 658.148 126.8C659.684 124.752 660.452 121.915 660.452 118.288C660.452 114.661 659.684 111.845 658.148 109.84C656.612 107.835 654.457 106.832 651.684 106.832C648.953 106.832 646.82 107.856 645.284 109.904C643.748 111.909 642.98 114.725 642.98 118.352C642.98 121.979 643.748 124.795 645.284 126.8C646.82 128.805 648.953 129.808 651.684 129.808ZM690.865 125.776C691.462 127.227 692.379 128.357 693.617 129.168C694.897 129.936 696.518 130.32 698.481 130.32C700.571 130.32 702.171 130.021 703.281 129.424C704.39 128.784 704.945 127.867 704.945 126.672C704.945 125.691 704.539 124.944 703.729 124.432C702.961 123.877 701.745 123.493 700.081 123.28L694.385 122.64C689.947 122.128 686.641 120.891 684.465 118.928C682.331 116.923 681.265 114.128 681.265 110.544C681.265 106.491 682.737 103.291 685.681 100.944C688.667 98.5973 692.785 97.424 698.033 97.424C703.579 97.424 707.867 98.64 710.897 101.072C713.926 103.461 715.569 107.003 715.825 111.696H706.161C705.691 109.947 704.774 108.624 703.409 107.728C702.043 106.789 700.23 106.32 697.969 106.32C695.75 106.32 694.065 106.64 692.913 107.28C691.761 107.92 691.185 108.859 691.185 110.096C691.185 111.035 691.569 111.781 692.337 112.336C693.105 112.848 694.321 113.211 695.985 113.424L701.681 114.064C706.161 114.576 709.467 115.813 711.601 117.776C713.777 119.739 714.865 122.512 714.865 126.096C714.865 128.827 714.203 131.173 712.881 133.136C711.601 135.099 709.723 136.613 707.249 137.68C704.817 138.704 701.873 139.216 698.417 139.216C693.126 139.216 689.009 138.085 686.065 135.824C683.121 133.52 681.478 130.171 681.137 125.776H690.865ZM277.76 202V150.8H297.28C300.779 150.8 303.851 151.461 306.496 152.784C309.141 154.107 311.168 155.963 312.576 158.352C314.027 160.741 314.752 163.579 314.752 166.864C314.752 170.021 314.027 172.773 312.576 175.12C311.168 177.424 309.141 179.216 306.496 180.496C303.851 181.776 300.779 182.416 297.28 182.416H288.576V202H277.76ZM288.576 172.688H297.344C299.392 172.688 300.992 172.176 302.144 171.152C303.339 170.128 303.936 168.699 303.936 166.864C303.936 164.987 303.339 163.536 302.144 162.512C300.992 161.488 299.392 160.976 297.344 160.976H288.576V172.688ZM321.805 162.64H338.765V166.224H341.133C341.858 164.731 342.925 163.579 344.333 162.768C345.783 161.915 347.405 161.488 349.197 161.488C352.311 161.488 354.658 162.683 356.237 165.072C357.858 167.419 358.669 170.896 358.669 175.504V181.84H348.109V176.848C348.109 173.264 346.786 171.472 344.141 171.472C342.434 171.472 341.175 172.24 340.365 173.776C339.554 175.312 339.149 177.659 339.149 180.816V192.784H350.285V202H322.573V192.784H329.165V171.856H321.805V162.64ZM384.025 203.216C380.185 203.216 376.857 202.363 374.041 200.656C371.225 198.949 369.049 196.539 367.513 193.424C365.977 190.309 365.209 186.619 365.209 182.352C365.209 178.043 365.977 174.331 367.513 171.216C369.049 168.101 371.225 165.691 374.041 163.984C376.857 162.277 380.185 161.424 384.025 161.424C387.865 161.424 391.193 162.277 394.009 163.984C396.825 165.691 399.001 168.101 400.537 171.216C402.073 174.331 402.841 178.043 402.841 182.352C402.841 186.619 402.073 190.309 400.537 193.424C399.001 196.539 396.825 198.949 394.009 200.656C391.236 202.363 387.908 203.216 384.025 203.216ZM384.025 194C386.841 194 389.017 192.976 390.553 190.928C392.089 188.88 392.857 186.021 392.857 182.352C392.857 178.64 392.089 175.76 390.553 173.712C389.017 171.664 386.841 170.64 384.025 170.64C381.252 170.64 379.076 171.664 377.497 173.712C375.961 175.76 375.193 178.64 375.193 182.352C375.193 186.021 375.961 188.88 377.497 190.928C379.076 192.976 381.252 194 384.025 194ZM413.99 162.64H440.229V202.256C440.229 206.651 438.928 210.043 436.326 212.432C433.766 214.821 430.096 216.016 425.318 216.016C420.88 216.016 417.36 214.971 414.758 212.88C412.198 210.789 410.79 207.824 410.534 203.984H420.582C421.094 205.093 421.734 205.925 422.502 206.48C423.27 207.035 424.187 207.312 425.253 207.312C426.747 207.312 427.878 206.864 428.646 205.968C429.456 205.072 429.862 203.813 429.862 202.192V171.856H413.99V162.64ZM435.046 157.968C432.955 157.968 431.334 157.435 430.182 156.368C429.03 155.301 428.454 153.787 428.454 151.824C428.454 149.861 429.03 148.347 430.182 147.28C431.334 146.213 432.955 145.68 435.046 145.68C437.179 145.68 438.8 146.213 439.91 147.28C441.062 148.347 441.638 149.861 441.638 151.824C441.638 153.787 441.062 155.301 439.91 156.368C438.8 157.435 437.179 157.968 435.046 157.968ZM463.986 178.192H485.81L482.418 182.032C482.418 178.149 481.735 175.227 480.37 173.264C479.047 171.301 477.021 170.32 474.29 170.32C471.517 170.32 469.405 171.365 467.954 173.456C466.546 175.504 465.842 178.384 465.842 182.096C465.842 186.107 466.546 189.157 467.954 191.248C469.362 193.296 471.559 194.32 474.546 194.32C476.253 194.32 477.746 193.936 479.026 193.168C480.349 192.357 481.479 191.227 482.418 189.776H492.402C491.549 192.635 490.269 195.067 488.562 197.072C486.855 199.077 484.786 200.613 482.354 201.68C479.965 202.704 477.277 203.216 474.29 203.216C470.45 203.216 467.143 202.384 464.37 200.72C461.639 199.056 459.527 196.645 458.034 193.488C456.583 190.331 455.858 186.533 455.858 182.096C455.858 177.872 456.605 174.224 458.098 171.152C459.634 168.037 461.789 165.648 464.562 163.984C467.335 162.277 470.578 161.424 474.29 161.424C477.917 161.424 481.01 162.235 483.57 163.856C486.13 165.477 488.093 167.824 489.458 170.896C490.866 173.925 491.57 177.637 491.57 182.032C491.57 182.715 491.527 183.355 491.442 183.952C491.399 184.549 491.357 185.104 491.314 185.616H463.986V178.192ZM518.207 152.464V162.64H535.423V171.856H518.207V188.304C518.207 190.181 518.548 191.611 519.231 192.592C519.913 193.531 520.916 194 522.239 194C523.604 194 524.713 193.424 525.567 192.272C526.42 191.12 527.103 189.243 527.615 186.64H536.767C536.511 192.016 535.103 196.133 532.543 198.992C530.025 201.808 526.505 203.216 521.983 203.216C517.417 203.216 513.919 201.936 511.487 199.376C509.055 196.816 507.839 193.147 507.839 188.368V171.856H500.479V162.64H507.839V152.464H518.207ZM556.427 189.776C557.024 191.227 557.942 192.357 559.179 193.168C560.459 193.936 562.08 194.32 564.043 194.32C566.134 194.32 567.734 194.021 568.843 193.424C569.952 192.784 570.507 191.867 570.507 190.672C570.507 189.691 570.102 188.944 569.291 188.432C568.523 187.877 567.307 187.493 565.643 187.28L559.947 186.64C555.51 186.128 552.203 184.891 550.027 182.928C547.894 180.923 546.827 178.128 546.827 174.544C546.827 170.491 548.299 167.291 551.243 164.944C554.23 162.597 558.347 161.424 563.595 161.424C569.142 161.424 573.43 162.64 576.459 165.072C579.488 167.461 581.131 171.003 581.387 175.696H571.723C571.254 173.947 570.336 172.624 568.971 171.728C567.606 170.789 565.792 170.32 563.531 170.32C561.312 170.32 559.627 170.64 558.475 171.28C557.323 171.92 556.747 172.859 556.747 174.096C556.747 175.035 557.131 175.781 557.899 176.336C558.667 176.848 559.883 177.211 561.547 177.424L567.243 178.064C571.723 178.576 575.03 179.813 577.163 181.776C579.339 183.739 580.427 186.512 580.427 190.096C580.427 192.827 579.766 195.173 578.443 197.136C577.163 199.099 575.286 200.613 572.811 201.68C570.379 202.704 567.435 203.216 563.979 203.216C558.688 203.216 554.571 202.085 551.627 199.824C548.683 197.52 547.04 194.171 546.699 189.776H556.427Z" fill="white"/>
</svg>
